<svg xmlns="http://www.w3.org/2000/svg" version="1.1" xmlns:xlink="http://www.w3.org/1999/xlink" width="499.99916495482404" height="500" x="0" y="0" viewBox="0 0 598.769 598.77" style="enable-background:new 0 0 512 512" xml:space="preserve"><g><path d="M161.196 253.695c16.274 6.884 33.538 10.374 51.31 10.374s35.035-3.49 51.31-10.374c15.698-6.64 29.787-16.136 41.876-28.225 12.089-12.089 21.585-26.179 28.225-41.876 6.884-16.275 10.374-33.538 10.374-51.309 0-17.772-3.49-35.035-10.374-51.31-6.64-15.698-16.136-29.787-28.225-41.876-12.089-12.089-26.178-21.585-41.876-28.225C247.541 3.99 230.278.5 212.506.5s-35.035 3.49-51.31 10.374c-15.698 6.64-29.787 16.136-41.876 28.225-12.089 12.089-21.585 26.178-28.224 41.876-6.884 16.275-10.374 33.538-10.374 51.31 0 17.771 3.49 35.035 10.374 51.309 6.639 15.698 16.135 29.788 28.224 41.876 12.089 12.089 26.179 21.585 41.876 28.225zm51.31-210.355c49.123 0 88.945 39.822 88.945 88.945 0 49.123-39.822 88.944-88.945 88.944s-88.944-39.822-88.944-88.944c0-49.123 39.821-88.945 88.944-88.945z" fill="#000000" opacity="1" data-original="#000000"></path><path d="M212.506 264.569c-17.84 0-35.168-3.503-51.504-10.414-15.757-6.665-29.9-16.197-42.035-28.332-12.135-12.134-21.667-26.277-28.331-42.035-6.91-16.336-10.414-33.664-10.414-51.504 0-17.839 3.503-35.167 10.414-51.504 6.664-15.757 16.195-29.899 28.331-42.035 12.135-12.135 26.278-21.667 42.035-28.332C177.338 3.503 194.667 0 212.506 0s35.168 3.503 51.504 10.414c15.757 6.664 29.899 16.197 42.035 28.332 12.135 12.134 21.667 26.277 28.332 42.035 6.909 16.336 10.413 33.665 10.413 51.504s-3.504 35.167-10.413 51.504c-6.666 15.758-16.198 29.901-28.332 42.035-12.135 12.135-26.278 21.667-42.035 28.332-16.336 6.909-33.664 10.413-51.504 10.413zm0-263.569c-17.705 0-34.902 3.477-51.115 10.334-15.638 6.614-29.674 16.075-41.718 28.118-12.044 12.044-21.504 26.08-28.117 41.717-6.857 16.213-10.334 33.41-10.334 51.115 0 17.705 3.477 34.902 10.334 51.114 6.614 15.639 16.074 29.675 28.117 41.718 12.043 12.043 26.08 21.503 41.718 28.118 16.212 6.857 33.41 10.334 51.115 10.334s34.902-3.477 51.115-10.334c15.638-6.615 29.674-16.075 41.718-28.118 12.043-12.042 21.503-26.079 28.117-41.718 6.858-16.213 10.335-33.41 10.335-51.114 0-17.705-3.477-34.902-10.335-51.115-6.614-15.639-16.074-29.674-28.117-41.717-12.044-12.044-26.08-21.504-41.718-28.118C247.408 4.477 230.211 1 212.506 1zm0 220.729c-49.32 0-89.444-40.125-89.444-89.444s40.125-89.445 89.444-89.445 89.445 40.125 89.445 89.445-40.125 89.444-89.445 89.444zm0-177.889c-48.769 0-88.444 39.676-88.444 88.445s39.676 88.444 88.444 88.444 88.445-39.676 88.445-88.444-39.677-88.445-88.445-88.445zM586.081 404.607c-7.023-16.604-17.067-31.506-29.855-44.293-12.787-12.789-27.689-22.834-44.294-29.855-17.213-7.281-35.472-10.973-54.271-10.973s-37.059 3.693-54.271 10.973a139.326 139.326 0 0 0-17.758 9.053 155.76 155.76 0 0 0-7.162-7.67c-14.042-14.043-30.405-25.072-48.636-32.782-18.896-7.993-38.944-12.045-59.586-12.045H154.764c-20.642 0-40.69 4.053-59.586 12.045-18.23 7.71-34.593 18.739-48.635 32.782-14.042 14.041-25.071 30.404-32.781 48.635-7.993 18.896-12.046 38.943-12.046 59.585v73.625c0 34.471 28.044 62.516 62.514 62.516h296.552c6.157 0 12.108-.9 17.733-2.566a139.11 139.11 0 0 0 24.874 13.662c17.213 7.279 35.473 10.971 54.271 10.971s37.059-3.691 54.271-10.971c16.604-7.023 31.507-17.068 44.294-29.855 12.789-12.789 22.833-27.691 29.855-44.295 7.28-17.213 10.972-35.473 10.972-54.271s-3.69-37.058-10.971-54.271zM457.661 555.43c-15.448 0-30.046-3.633-42.993-10.084a96.651 96.651 0 0 1-18.017-11.637 97.1 97.1 0 0 1-16.408-17.127c-12.019-16.098-19.135-36.068-19.135-57.703 0-18.727 5.338-36.205 14.566-51.008a96.979 96.979 0 0 1 15.791-19.273 96.923 96.923 0 0 1 17.55-13.133c14.285-8.348 30.905-13.137 48.646-13.137 53.324 0 96.552 43.227 96.552 96.551s-43.228 96.551-96.552 96.551zM64.23 533.363c-10.866 0-19.674-8.809-19.674-19.674v-73.627c0-60.865 49.342-110.207 110.208-110.207h115.484c32.859 0 62.354 14.385 82.545 37.195a138.68 138.68 0 0 0-23.553 37.557c-7.28 17.213-10.972 35.473-10.972 54.271s3.69 37.059 10.972 54.271a139.133 139.133 0 0 0 10.576 20.213H64.23z" fill="#000000" opacity="1" data-original="#000000"></path><path d="M457.662 598.77c-18.865 0-37.19-3.704-54.466-11.01a140.062 140.062 0 0 1-24.768-13.576 62.908 62.908 0 0 1-17.646 2.52H64.23c-34.746 0-63.014-28.269-63.014-63.016v-73.625c0-20.709 4.066-40.822 12.085-59.78 7.735-18.29 18.8-34.706 32.888-48.794C60.277 317.4 76.694 306.335 94.983 298.6c18.958-8.019 39.072-12.084 59.781-12.084h115.483c20.712 0 40.825 4.066 59.78 12.084 18.291 7.735 34.707 18.8 48.795 32.889a156.44 156.44 0 0 1 6.909 7.38 140.314 140.314 0 0 1 17.463-8.87c17.278-7.307 35.604-11.012 54.466-11.012 18.866 0 37.191 3.705 54.465 11.012 16.664 7.047 31.62 17.128 44.453 29.963 12.832 12.831 22.913 27.787 29.962 44.452 7.308 17.273 11.013 35.598 11.013 54.464s-3.705 37.191-11.011 54.466c-7.048 16.664-17.129 31.62-29.963 44.454-12.833 12.833-27.789 22.914-44.453 29.962-17.274 7.305-35.598 11.01-54.464 11.01zm-79.059-25.68.197.136a139.04 139.04 0 0 0 24.785 13.612c17.151 7.254 35.345 10.932 54.076 10.932s36.925-3.678 54.076-10.932c16.544-6.997 31.393-17.007 44.135-29.748 12.742-12.742 22.751-27.592 29.748-44.136 7.255-17.151 10.933-35.346 10.933-54.077s-3.679-36.925-10.934-54.075c-6.998-16.545-17.007-31.394-29.748-44.134-12.742-12.743-27.591-22.752-44.135-29.748-17.15-7.255-35.345-10.934-54.076-10.934-18.728 0-36.922 3.679-54.077 10.934a139.334 139.334 0 0 0-17.693 9.02l-.359.217-.276-.315a156.44 156.44 0 0 0-7.139-7.646c-13.996-13.997-30.306-24.99-48.477-32.675-18.832-7.966-38.814-12.005-59.392-12.005H154.764c-20.575 0-40.557 4.039-59.391 12.005-18.17 7.684-34.48 18.678-48.477 32.675-13.997 13.996-24.99 30.306-32.674 48.476-7.966 18.835-12.006 38.817-12.006 59.392v73.625c0 34.195 27.819 62.016 62.014 62.016h296.552c5.97 0 11.888-.856 17.592-2.546l.229-.069zm79.058-17.16c-15.177 0-29.717-3.41-43.216-10.137a97.325 97.325 0 0 1-18.11-11.696 97.675 97.675 0 0 1-16.492-17.216c-12.583-16.854-19.234-36.91-19.234-58.002 0-18.178 5.063-35.907 14.642-51.272a97.556 97.556 0 0 1 33.514-32.573c14.783-8.639 31.691-13.205 48.897-13.205 53.515 0 97.052 43.537 97.052 97.051s-43.539 97.05-97.053 97.05zm0-193.102c-17.028 0-33.763 4.519-48.394 13.068a96.522 96.522 0 0 0-33.169 32.239c-9.479 15.206-14.49 32.753-14.49 50.743 0 20.874 6.582 40.725 19.035 57.404a96.628 96.628 0 0 0 16.324 17.038 96.287 96.287 0 0 0 17.923 11.577c13.359 6.656 27.749 10.031 42.771 10.031 52.963 0 96.052-43.088 96.052-96.051s-43.089-96.049-96.052-96.049zM340.725 533.863H64.23c-11.124 0-20.174-9.05-20.174-20.174v-73.627c0-61.044 49.663-110.707 110.708-110.707h115.484c31.678 0 61.901 13.618 82.919 37.364l.292.33-.29.331a138.324 138.324 0 0 0-23.468 37.421c-7.255 17.151-10.933 35.346-10.933 54.077 0 18.734 3.678 36.928 10.932 54.077a139.124 139.124 0 0 0 10.539 20.14l.486.768zM154.764 330.355c-60.493 0-109.708 49.215-109.708 109.707v73.627c0 10.572 8.602 19.174 19.174 19.174h274.682a140.249 140.249 0 0 1-10.133-19.519c-7.306-17.272-11.011-35.597-11.011-54.466 0-18.866 3.705-37.191 11.011-54.466a139.371 139.371 0 0 1 23.347-37.359c-20.816-23.329-50.632-36.698-81.878-36.698H154.764z" fill="#000000" opacity="1" data-original="#000000"></path><path d="M504.745 437.459h-25.664v-25.664c0-11.83-9.591-21.42-21.42-21.42-11.83 0-21.42 9.59-21.42 21.42v25.664h-25.665c-3.103 0-6.048.664-8.709 1.852-7.487 3.338-12.711 10.84-12.711 19.568 0 8.73 5.227 16.236 12.72 19.572a21.331 21.331 0 0 0 8.7 1.848h25.664v25.664c0 11.83 9.59 21.42 21.42 21.42 11.829 0 21.42-9.59 21.42-21.42v-25.664h25.664c11.83 0 21.42-9.59 21.42-21.42s-9.589-21.42-21.419-21.42z" fill="#000000" opacity="1" data-original="#000000"></path><path d="M457.661 527.883c-12.087 0-21.92-9.833-21.92-21.92v-25.164h-25.164c-3.089 0-6.085-.636-8.903-1.891-7.907-3.521-13.017-11.383-13.017-20.029 0-8.643 5.105-16.502 13.008-20.025a21.73 21.73 0 0 1 8.912-1.895h25.164v-25.164c0-12.087 9.833-21.92 21.92-21.92s21.92 9.833 21.92 21.92v25.164h25.164c12.087 0 21.92 9.833 21.92 21.92s-9.833 21.92-21.92 21.92h-25.164v25.164c0 12.087-9.833 21.92-21.92 21.92zm-47.084-89.924a20.72 20.72 0 0 0-8.505 1.809 20.949 20.949 0 0 0-12.415 19.111 20.947 20.947 0 0 0 12.423 19.115 20.77 20.77 0 0 0 8.497 1.805h26.164v26.164c0 11.535 9.385 20.92 20.92 20.92s20.92-9.385 20.92-20.92v-26.164h26.164c11.535 0 20.92-9.385 20.92-20.92s-9.385-20.92-20.92-20.92h-26.164v-26.164c0-11.535-9.385-20.92-20.92-20.92s-20.92 9.385-20.92 20.92v26.164h-26.164z" fill="#000000" opacity="1" data-original="#000000"></path></g></svg>