<svg xmlns="http://www.w3.org/2000/svg" version="1.1" xmlns:xlink="http://www.w3.org/1999/xlink" width="40" height="40" x="0" y="0" viewBox="0 0 51.76 51.76" style="enable-background:new 0 0 512 512" xml:space="preserve"><g><circle cx="15.39" cy="4.82" r="4.82" style="" fill="#010002" data-original="#010002"></circle><path d="M45.689 46.201c-5.744-8.573-12.312-19.74-13.416-21.625a5.668 5.668 0 0 0-.414-1.038 249.717 249.717 0 0 0-4.084-7.596l4.455.346c1.02 2.01 2.035 4.021 3.053 6.03 1.639 3.237 6.49.389 4.855-2.839-1.312-2.593-2.867-8.425-6.254-8.688l-10.81-.839c-.088-.007-.163.005-.247.005-2.724-.729-5.917 1.193-6.495 3.97-1.842 3.989-4.487 7.104-8.925 8.404-3.474 1.016-1.994 6.443 1.495 5.423 4.387-1.284 7.538-3.798 9.927-7.107 1.447 2.58 2.86 5.176 4.214 7.808-2.977 2.053-5.578 4.536-7.857 7.401-.636.799-.745 1.621-.531 2.344-.008.27.009.55.086.854.877 3.472 1.753 6.938 2.631 10.406.931 3.696 6.782 2.646 5.843-1.074l-2.506-9.917c2.094-2.469 4.563-4.617 7.384-6.221.664-.378 1.082-.899 1.314-1.473 3.859 5.914 7.719 14.096 11.576 19.055 2.354 3.026 7.063-.597 4.706-3.629z" style="" fill="#010002" data-original="#010002"></path></g></svg>