<svg width="36" height="36" viewBox="0 0 36 36" fill="none" xmlns="http://www.w3.org/2000/svg">
<path d="M34.4336 12.5593L24.5198 11.6218C23.8949 11.565 23.3549 11.1673 23.0995 10.5708L19.5486 1.96351C18.9805 0.543169 16.9633 0.543169 16.3951 1.96351L12.8727 10.5708C12.6454 11.1673 12.0773 11.565 11.4523 11.6218L1.53825 12.5593C0.0610787 12.7013 -0.53547 14.5477 0.572406 15.542L8.04347 22.104C8.52639 22.5301 8.72524 23.155 8.5832 23.78L6.33904 32.9835C5.99816 34.4325 7.56055 35.6253 8.86727 34.8586L17.1337 30.0008C17.6735 29.6883 18.3268 29.6883 18.8666 30.0008L27.1333 34.8586C28.44 35.6253 30.0024 34.4609 29.6612 32.9835L27.4455 23.78C27.3035 23.155 27.5023 22.5301 27.9852 22.104L35.4563 15.542C36.5358 14.5477 35.9108 12.7013 34.4336 12.5593Z" fill="#141414"/>
</svg>
